#Comment line ignore any data following # character 
#Hierarchical Translation and Rotation (.htr) file 
[Header]	
#Header keywords are followed by a single value 
FileType HTR		#Single word string
DataType HTRS		#Translation followed by rotation and scale data
FileVersion 1		#integer
NumSegments 64		#integer
NumFrames 3		#integer
DataFrameRate 30		#integer, data frame rate in this file
EulerRotationOrder ZYX
CalibrationUnits mm
RotationUnits Degrees
GlobalAxisofGravity Y
BoneLengthAxis Y
ScaleFactor 1.00
[SegmentNames&Hierarchy]
#CHILD	PARENT
Pinger_Root GLOBAL
Pelvis Pinger_Root
L_Hip Pelvis
R_Hip Pelvis
Rear_Leg01 Pelvis
Spine1 Pelvis
L_Leg01 L_Hip
L_Leg02 L_Leg01
L_Leg03 L_Leg02
L_Foot L_Leg03
L_Toe1_01 L_Foot
L_Toe2_01 L_Foot
L_Toe3_01 L_Foot
planeAlignerLeft L_Foot
L_Toe1_02 L_Toe1_01
L_Toe1_03 L_Toe1_02
L_Toe2_02 L_Toe2_01
L_Toe2_03 L_Toe2_02
L_Toe3_02 L_Toe3_01
L_Toe3_03 L_Toe3_02
planeLockWeightLeft planeAlignerLeft
R_Leg01 R_Hip
R_Leg02 R_Leg01
R_Leg03 R_Leg02
R_Foot R_Leg03
planeAlignerRight R_Foot
R_Toe1_01 R_Foot
R_Toe2_01 R_Foot
R_Toe3_01 R_Foot
planeLockWeightRight planeAlignerRight
R_Toe1_02 R_Toe1_01
R_Toe1_03 R_Toe1_02
R_Toe2_02 R_Toe2_01
R_Toe2_03 R_Toe2_02
R_Toe3_02 R_Toe3_01
R_Toe3_03 R_Toe3_02
Rear_Leg02 Rear_Leg01
Rear_Leg03 Rear_Leg02
Rear_Leg04 Rear_Leg03
Rear_Foot Rear_Leg04
planeAlignerCenter Rear_Foot
Rear_Toe1_01 Rear_Foot
Rear_Toe2_01 Rear_Foot
Rear_Toe3_01 Rear_Foot
planeLockWeightCenter planeAlignerCenter
Rear_Toe1_02 Rear_Toe1_01
Rear_Toe1_03 Rear_Toe1_02
Rear_Toe2_02 Rear_Toe2_01
Rear_Toe2_03 Rear_Toe2_02
Rear_Toe3_02 Rear_Toe3_01
Rear_Toe3_03 Rear_Toe3_02
Back_Bone Spine1
Head Spine1
Motor_Bone Back_Bone
Ping_Mechanism Back_Bone
BN_LookIK Head
bottomMouth Head
L_Mouth01 Head
L_mouthFront Head
mouthGun Head
R_Mouth01 Head
R_mouthFront Head
TopMouth Head
weapon_bone Head
[BasePosition]
#SegmentName Tx, Ty, Tz, Rx, Ry, Rz, BoneLength
Pinger_Root 0.000000 0.000000 0.000000 -90.000000 0.000000 0.000000 10.000000 
Pelvis 0.000000 0.000000 0.000000 0.000000 0.000000 0.000000 10.000000 
L_Hip 0.000000 0.000000 0.000000 0.000000 0.000000 0.000000 10.000000 
R_Hip 0.000000 0.000000 0.000000 0.000000 0.000000 0.000000 10.000000 
Rear_Leg01 0.000000 0.000000 0.000000 0.000000 0.000000 0.000000 10.000000 
Spine1 0.000000 0.000000 0.000000 0.000000 0.000000 0.000000 10.000000 
L_Leg01 0.000000 0.000000 0.000000 0.000000 0.000000 0.000000 10.000000 
L_Leg02 0.000000 0.000000 0.000000 0.000000 0.000000 0.000000 10.000000 
L_Leg03 0.000000 0.000000 0.000000 0.000000 0.000000 0.000000 10.000000 
L_Foot 0.000000 0.000000 0.000000 0.000000 0.000000 0.000000 10.000000 
L_Toe1_01 0.000000 0.000000 0.000000 0.000000 0.000000 0.000000 10.000000 
L_Toe2_01 0.000000 0.000000 0.000000 0.000000 0.000000 0.000000 10.000000 
L_Toe3_01 0.000000 0.000000 0.000000 0.000000 0.000000 0.000000 10.000000 
planeAlignerLeft 0.000000 0.000000 0.000000 0.000000 0.000000 0.000000 10.000000 
L_Toe1_02 0.000000 0.000000 0.000000 0.000000 0.000000 0.000000 10.000000 
L_Toe1_03 0.000000 0.000000 0.000000 0.000000 0.000000 0.000000 10.000000 
L_Toe2_02 0.000000 0.000000 0.000000 0.000000 0.000000 0.000000 10.000000 
L_Toe2_03 0.000000 0.000000 0.000000 0.000000 0.000000 0.000000 10.000000 
L_Toe3_02 0.000000 0.000000 0.000000 0.000000 0.000000 0.000000 10.000000 
L_Toe3_03 0.000000 0.000000 0.000000 0.000000 0.000000 0.000000 10.000000 
planeLockWeightLeft 0.000000 0.000000 0.000000 0.000000 0.000000 0.000000 10.000000 
R_Leg01 0.000000 0.000000 0.000000 0.000000 0.000000 0.000000 10.000000 
R_Leg02 0.000000 0.000000 0.000000 0.000000 0.000000 0.000000 10.000000 
R_Leg03 0.000000 0.000000 0.000000 0.000000 0.000000 0.000000 10.000000 
R_Foot 0.000000 0.000000 0.000000 0.000000 0.000000 0.000000 10.000000 
planeAlignerRight 0.000000 0.000000 0.000000 0.000000 0.000000 0.000000 10.000000 
R_Toe1_01 0.000000 0.000000 0.000000 0.000000 0.000000 0.000000 10.000000 
R_Toe2_01 0.000000 0.000000 0.000000 0.000000 0.000000 0.000000 10.000000 
R_Toe3_01 0.000000 0.000000 0.000000 0.000000 0.000000 0.000000 10.000000 
planeLockWeightRight 0.000000 0.000000 0.000000 0.000000 0.000000 0.000000 10.000000 
R_Toe1_02 0.000000 0.000000 0.000000 0.000000 0.000000 0.000000 10.000000 
R_Toe1_03 0.000000 0.000000 0.000000 0.000000 0.000000 0.000000 10.000000 
R_Toe2_02 0.000000 0.000000 0.000000 0.000000 0.000000 0.000000 10.000000 
R_Toe2_03 0.000000 0.000000 0.000000 0.000000 0.000000 0.000000 10.000000 
R_Toe3_02 0.000000 0.000000 0.000000 0.000000 0.000000 0.000000 10.000000 
R_Toe3_03 0.000000 0.000000 0.000000 0.000000 0.000000 0.000000 10.000000 
Rear_Leg02 0.000000 0.000000 0.000000 0.000000 0.000000 0.000000 10.000000 
Rear_Leg03 0.000000 0.000000 0.000000 0.000000 0.000000 0.000000 10.000000 
Rear_Leg04 0.000000 0.000000 0.000000 0.000000 0.000000 0.000000 10.000000 
Rear_Foot 0.000000 0.000000 0.000000 0.000000 0.000000 0.000000 10.000000 
planeAlignerCenter 0.000000 0.000000 0.000000 0.000000 0.000000 0.000000 10.000000 
Rear_Toe1_01 0.000000 0.000000 0.000000 0.000000 0.000000 0.000000 10.000000 
Rear_Toe2_01 0.000000 0.000000 0.000000 0.000000 0.000000 0.000000 10.000000 
Rear_Toe3_01 0.000000 0.000000 0.000000 0.000000 0.000000 0.000000 10.000000 
planeLockWeightCenter 0.000000 0.000000 0.000000 0.000000 0.000000 0.000000 10.000000 
Rear_Toe1_02 0.000000 0.000000 0.000000 0.000000 0.000000 0.000000 10.000000 
Rear_Toe1_03 0.000000 0.000000 0.000000 0.000000 0.000000 0.000000 10.000000 
Rear_Toe2_02 0.000000 0.000000 0.000000 0.000000 0.000000 0.000000 10.000000 
Rear_Toe2_03 0.000000 0.000000 0.000000 0.000000 0.000000 0.000000 10.000000 
Rear_Toe3_02 0.000000 0.000000 0.000000 0.000000 0.000000 0.000000 10.000000 
Rear_Toe3_03 0.000000 0.000000 0.000000 0.000000 0.000000 0.000000 10.000000 
Back_Bone 0.000000 0.000000 0.000000 0.000000 0.000000 0.000000 10.000000 
Head 0.000000 0.000000 0.000000 0.000000 0.000000 0.000000 10.000000 
Motor_Bone 0.000000 0.000000 0.000000 0.000000 0.000000 0.000000 10.000000 
Ping_Mechanism 0.000000 0.000000 0.000000 0.000000 0.000000 0.000000 10.000000 
BN_LookIK 0.000000 0.000000 0.000000 0.000000 0.000000 0.000000 10.000000 
bottomMouth 0.000000 0.000000 0.000000 0.000000 0.000000 0.000000 10.000000 
L_Mouth01 0.000000 0.000000 0.000000 0.000000 0.000000 0.000000 10.000000 
L_mouthFront 0.000000 0.000000 0.000000 0.000000 0.000000 0.000000 10.000000 
mouthGun 0.000000 0.000000 0.000000 0.000000 0.000000 0.000000 10.000000 
R_Mouth01 0.000000 0.000000 0.000000 0.000000 0.000000 0.000000 10.000000 
R_mouthFront 0.000000 0.000000 0.000000 0.000000 0.000000 0.000000 10.000000 
TopMouth 0.000000 0.000000 0.000000 0.000000 0.000000 0.000000 10.000000 
weapon_bone 0.000000 0.000000 0.000000 0.000000 0.000000 0.000000 10.000000 
#Beginning of Data. Separated by tabs
#Fr	Tx	Ty	Tz	Rx	Ry	Rz	SF
[Pinger_Root]
88 0.000000 -349.035431 0.000000 -0.000075 -0.000000 -0.000020 349.035431
89 0.000000 -356.500977 0.000000 -0.000075 -0.000000 -0.000020 356.501007
90 0.000000 -363.966583 0.000000 -0.000075 -0.000000 -0.000020 363.966614
[Pelvis]
88 1301.494995 9032.015625 7447.262207 80.925468 -77.368965 -61.353287 11778.493164
89 1354.073486 9166.983398 7473.655762 84.761101 -78.838760 -65.108345 11904.731445
90 1399.600342 9304.713867 7495.937500 90.069702 -80.461128 -70.392570 12030.198242
[L_Hip]
88 5.766392 125.831482 872.656799 -178.253342 -81.787758 87.381340 881.701050
89 5.766392 125.831482 872.656799 -178.253311 -81.787758 87.381340 881.701050
90 5.766392 125.831482 872.656799 -178.253311 -81.787758 87.381340 881.701050
[R_Hip]
88 5.765438 125.836372 -872.654907 -1.746678 81.787712 87.381248 881.699829
89 5.765438 125.836372 -872.654907 -1.746690 81.787712 87.381248 881.699829
90 5.765438 125.836372 -872.654907 -1.746690 81.787712 87.381248 881.699829
[Rear_Leg01]
88 -192.298416 -925.602966 -0.001907 -161.543610 -12.676550 -156.772781 945.367432
89 -192.298416 -925.602966 -0.001907 -162.310120 -14.553595 -157.097580 945.367432
90 -192.298416 -925.602966 -0.001907 -163.072556 -16.434652 -157.399155 945.367432
[Spine1]
88 290.604584 5.007505 0.000477 -26.486076 8.151204 35.960419 290.647736
89 290.604584 5.007505 0.000477 -26.180653 9.143460 34.880157 290.647736
90 290.604584 5.007505 0.000477 -25.773338 10.145422 33.574753 290.647736
[L_Leg01]
88 761.932007 -0.002384 -0.069261 115.922218 -28.040833 -91.523972 761.932068
89 761.932007 -0.002384 -0.069261 110.758461 -32.842075 -85.928574 761.932068
90 761.932007 -0.002384 -0.069261 103.272751 -34.510067 -79.148132 761.932068
[L_Leg02]
88 1441.140503 -0.000954 -0.000715 0.756039 -0.193574 -131.080688 1441.140503
89 1441.140503 -0.000954 -0.000715 1.937568 -0.404457 -135.203842 1441.140503
90 1441.140503 -0.000954 -0.000715 3.065951 -0.297842 -136.710526 1441.140503
[L_Leg03]
88 1686.963989 -0.000715 -0.000954 0.036469 -0.010562 101.062042 1686.963989
89 1686.963989 -0.000715 -0.000954 0.009220 -0.001482 108.267220 1686.963989
90 1686.963989 -0.000715 -0.000954 -0.020755 0.008442 116.308754 1686.963989
[L_Foot]
88 3041.570068 -30.715107 11.297464 -37.626823 12.879844 47.219097 3041.746094
89 3041.570068 -30.715107 11.297464 -32.895325 12.028652 47.917816 3041.746094
90 3041.570068 -30.715107 11.297464 -26.762466 11.247359 49.708187 3041.746094
[L_Toe1_01]
88 -188.216690 -224.732346 -21.137953 88.464851 -1.270249 -136.068787 293.899567
89 -188.216690 -224.732346 -21.137953 88.641647 -1.597172 -139.973175 293.899567
90 -188.216690 -224.732346 -21.137953 88.646286 -1.632277 -139.961502 293.899567
[L_Toe2_01]
88 200.746536 -219.926590 148.838394 -73.253296 -4.658788 -74.868469 332.896027
89 200.746536 -219.926590 148.838394 -73.157288 -3.793972 -76.699371 332.896027
90 200.746536 -219.926590 148.838394 -73.286583 -3.772700 -75.812897 332.896027
[L_Toe3_01]
88 188.832520 -219.859131 -191.078659 -111.342506 5.594484 -76.055222 347.140900
89 188.832520 -219.859131 -191.078659 -111.424828 4.518472 -77.793106 347.140900
90 188.832520 -219.859131 -191.078659 -111.262047 4.493325 -76.903679 347.140900
[planeAlignerLeft]
88 0.812531 -811.448792 -0.314951 0.000000 -90.000000 -90.001900 811.449280
89 0.812531 -811.448792 -0.314951 0.000000 -90.000000 -90.001900 811.449280
90 0.812531 -811.448792 -0.314951 0.000000 -90.000000 -90.001900 811.449280
[L_Toe1_02]
88 413.761139 0.000477 0.000000 0.001430 -20.337568 0.001430 413.761139
89 413.761139 0.000477 0.000000 0.001450 -18.080471 0.001450 413.761139
90 413.761139 0.000477 0.000000 0.001455 -17.576616 0.001455 413.761139
[L_Toe1_03]
88 464.317322 0.000358 -0.000089 0.188617 89.286186 0.188618 464.317322
89 464.317322 0.000358 -0.000089 -179.992188 83.108353 -179.988678 464.317322
90 464.317322 0.000358 -0.000089 -179.994049 81.437805 -179.990555 464.317322
[L_Toe2_02]
88 342.235809 -0.000477 0.000238 0.001180 -78.078331 0.001180 342.235809
89 342.235809 -0.000477 0.000238 0.001180 -77.998947 0.001180 342.235809
90 342.235809 -0.000477 0.000238 0.001180 -77.919525 0.001180 342.235809
[L_Toe2_03]
88 420.210846 -0.000715 0.000000 -179.997131 75.726944 -179.993607 420.210846
89 420.210846 -0.000715 0.000000 -179.997131 75.720695 -179.993607 420.210846
90 420.210846 -0.000715 0.000000 -179.997009 76.105469 -179.993484 420.210846
[L_Toe3_02]
88 329.270111 0.000954 0.000000 0.001177 -81.658134 0.001177 329.270111
89 329.270111 0.000954 0.000000 0.001177 -81.594658 0.001177 329.270111
90 329.270111 0.000954 0.000000 0.001177 -81.531029 0.001177 329.270111
[L_Toe3_03]
88 439.137451 -0.001907 0.000954 -179.997757 73.568802 -179.994217 439.137451
89 439.137451 -0.001907 0.000954 -179.997772 73.513344 -179.994232 439.137451
90 439.137451 -0.001907 0.000954 -179.997665 73.855492 -179.994141 439.137451
[planeLockWeightLeft]
88 -0.000954 0.000238 -0.000305 -0.011826 -0.004376 0.005620 0.001029
89 -0.000954 0.000238 -0.000305 -0.011826 -0.004376 0.005620 0.001029
90 -0.000954 0.000238 -0.000305 -0.011826 -0.004376 0.005620 0.001029
[R_Leg01]
88 761.455627 -0.001907 -0.000358 132.663864 -0.545520 66.649338 761.455688
89 761.455627 -0.001907 -0.000358 134.417557 -0.377854 68.635223 761.455688
90 761.455627 -0.001907 -0.000358 136.017715 -0.505560 70.508072 761.455688
[R_Leg02]
88 1441.140625 0.000000 -0.000238 0.210391 0.026110 -87.700958 1441.140625
89 1441.140625 0.000000 -0.000238 0.210387 0.026142 -87.718109 1441.140625
90 1441.140625 0.000000 -0.000238 0.210384 0.026173 -87.735268 1441.140625
[R_Leg03]
88 1686.963989 0.000954 0.001431 -0.031715 0.010368 101.993744 1686.963989
89 1686.963989 0.000954 0.001431 -0.031714 0.010369 101.996925 1686.963989
90 1686.963989 0.000954 0.001431 -0.031714 0.010370 102.000122 1686.963989
[R_Foot]
88 3041.560059 -30.531288 -11.204481 7.709493 -11.387135 53.581242 3041.734131
89 3041.560059 -30.531288 -11.204481 7.431442 -10.394028 55.576927 3041.734131
90 3041.560059 -30.531288 -11.204481 7.374910 -9.518778 57.314995 3041.734131
[planeAlignerRight]
88 -0.635147 -812.270569 -0.364304 0.000000 -89.960434 -90.005180 812.270874
89 -0.635147 -812.270569 -0.364304 0.000000 -89.960434 -90.005180 812.270874
90 -0.635147 -812.270569 -0.364304 0.000000 -89.960434 -90.005180 812.270874
[R_Toe1_01]
88 -188.383347 -224.864899 21.052242 90.687325 0.924879 -168.376282 294.101532
89 -188.383347 -224.864899 21.052242 90.684753 1.040987 -167.644012 294.101532
90 -188.383347 -224.864899 21.052242 90.696777 1.145307 -166.235046 294.101532
[R_Toe2_01]
88 200.637817 -220.002121 -148.787384 -101.184212 11.159827 -42.385983 332.857574
89 200.637817 -220.002121 -148.787384 -101.407890 10.942204 -43.478825 332.857574
90 200.637817 -220.002121 -148.787384 -101.735817 10.807822 -44.878738 332.857574
[R_Toe3_01]
88 188.606735 -220.092957 191.126343 -74.432175 -16.534075 -45.044765 347.192566
89 188.606735 -220.092957 191.126343 -74.228981 -15.979209 -46.054337 347.192566
90 188.606735 -220.092957 191.126343 -73.895859 -15.531704 -47.356087 347.192566
[planeLockWeightRight]
88 -0.000477 0.000000 0.000000 -0.011823 -0.004379 -0.000027 0.000477
89 -0.000477 0.000000 0.000000 -0.011823 -0.004379 -0.000027 0.000477
90 -0.000477 0.000000 0.000000 -0.011823 -0.004379 -0.000027 0.000477
[R_Toe1_02]
88 413.762085 0.000477 -0.000119 0.001428 -20.543779 0.001428 413.762085
89 413.762085 0.000477 -0.000119 0.001428 -20.493559 0.001428 413.762085
90 413.762085 0.000477 -0.000119 0.001425 -20.936148 0.001425 413.762085
[R_Toe1_03]
88 464.317810 0.000000 0.001088 -0.047893 88.572342 -0.044396 464.317810
89 464.317810 0.000000 0.001088 -0.055130 88.765678 -0.051633 464.317810
90 464.317810 0.000000 0.001088 -0.027186 87.410561 -0.023689 464.317810
[R_Toe2_02]
88 342.234741 -0.000954 0.000238 -0.002338 -76.987274 -0.002338 342.234741
89 342.234741 -0.000954 0.000238 -0.002339 -76.471001 -0.002339 342.234741
90 342.234741 -0.000954 0.000238 -0.002341 -75.954659 -0.002341 342.234741
[R_Toe2_03]
88 420.210846 0.000715 -0.000268 -179.991821 79.735298 -179.995331 420.210846
89 420.210846 0.000715 -0.000268 -179.989944 82.068527 -179.993454 420.210846
90 420.210846 0.000715 -0.000268 -179.987930 83.611900 -179.991440 420.210846
[R_Toe3_02]
88 329.270355 -0.000477 -0.000954 0.001178 -80.221436 0.001178 329.270355
89 329.270355 -0.000477 -0.000954 0.001178 -79.771744 0.001178 329.270355
90 329.270355 -0.000477 -0.000954 0.001179 -79.321976 0.001179 329.270355
[R_Toe3_03]
88 439.137939 0.000238 0.001431 -179.995453 79.522827 -179.991943 439.137939
89 439.137939 0.000238 0.001431 -179.994003 81.499313 -179.990494 439.137939
90 439.137939 0.000238 0.001431 -179.992676 82.738983 -179.989182 439.137939
[Rear_Leg02]
88 1162.777710 -0.029802 0.005960 -1.838084 9.583538 -108.294624 1162.777710
89 1162.777710 -0.029802 0.005960 -0.886618 8.938034 -102.559921 1162.777710
90 1162.777710 -0.029802 0.005960 -0.006800 8.202074 -96.847237 1162.777710
[Rear_Leg03]
88 607.192505 -0.013351 -0.073195 0.010646 -0.004775 64.672348 607.192505
89 607.192505 -0.013351 -0.073195 0.008621 -0.003295 62.557163 607.192505
90 607.192505 -0.013351 -0.073195 0.006543 -0.001890 60.441948 607.192505
[Rear_Leg04]
88 995.874512 -0.020504 -0.011921 -0.040841 -0.016785 59.006065 995.874573
89 995.874512 -0.020504 -0.011921 -0.040061 -0.016327 54.925102 995.874573
90 995.874512 -0.020504 -0.011921 -0.038802 -0.016258 50.892292 995.874573
[Rear_Foot]
88 3096.176270 -0.067472 -0.041425 128.663315 79.070000 -45.171776 3096.176270
89 3096.176270 -0.067472 -0.041425 134.375885 78.965591 -37.787624 3096.176270
90 3096.176270 -0.067472 -0.041425 140.370224 78.968491 -30.027950 3096.176270
[planeAlignerCenter]
88 0.350077 0.966311 -838.790894 0.000009 0.000003 -179.999985 838.791565
89 0.350077 0.966311 -838.790894 0.000009 0.000003 -179.999985 838.791565
90 0.350077 0.966311 -838.790894 0.000009 0.000003 -179.999985 838.791565
[Rear_Toe1_01]
88 0.653352 83.966492 -371.173737 0.056808 23.474241 90.029778 380.553192
89 0.653352 83.966492 -371.173737 0.059017 22.840260 90.032997 380.553192
90 0.653352 83.966492 -371.173737 0.058013 22.540676 90.028564 380.553192
[Rear_Toe2_01]
88 178.200760 -294.826019 -362.060547 0.977020 48.350182 -69.871353 499.765686
89 178.200760 -294.826019 -362.060547 1.008157 47.650963 -69.778229 499.765686
90 178.200760 -294.826019 -362.060547 1.054234 47.188606 -69.666771 499.765686
[Rear_Toe3_01]
88 -153.359680 -308.780914 -362.060852 -1.225923 48.352081 -112.601982 499.952881
89 -153.359680 -308.780914 -362.060852 -1.266437 47.657333 -112.714546 499.952881
90 -153.359680 -308.780914 -362.060852 -1.312384 47.193306 -112.832611 499.952881
[planeLockWeightCenter]
88 -0.000062 0.000238 0.000000 -0.011814 -0.004373 -0.000015 0.000246
89 -0.000062 0.000238 0.000000 -0.011814 -0.004373 -0.000015 0.000246
90 -0.000062 0.000238 0.000000 -0.011814 -0.004373 -0.000015 0.000246
[Rear_Toe1_02]
88 379.707825 0.194073 0.000477 0.001332 -33.551727 0.001332 379.707855
89 379.707825 0.194073 0.000477 0.001332 -33.545456 0.001332 379.707855
90 379.707825 0.194073 0.000477 0.001332 -33.539188 0.001332 379.707855
[Rear_Toe1_03]
88 500.129700 0.165701 0.000119 0.007121 71.027016 0.007121 500.129761
89 500.129700 0.165701 0.000119 0.007132 71.057365 0.007132 500.129761
90 500.129700 0.165701 0.000119 0.007025 70.765907 0.007025 500.129761
[Rear_Toe2_02]
88 340.494507 0.000238 -0.000954 0.001175 -84.400909 0.001175 340.494507
89 340.494507 0.000238 -0.000954 0.001175 -85.014969 0.001175 340.494507
90 340.494507 0.000238 -0.000954 0.001175 -85.402023 0.001175 340.494507
[Rear_Toe2_03]
88 433.103577 0.000000 0.000238 179.982010 82.521530 179.982010 433.103546
89 433.103577 0.000000 0.000238 179.984848 81.121017 179.984848 433.103546
90 433.103577 0.000000 0.000238 179.986542 79.999519 179.986542 433.103546
[Rear_Toe3_02]
88 340.494141 -0.000358 -0.000477 0.001175 -84.304054 0.001175 340.494171
89 340.494141 -0.000358 -0.000477 0.001175 -84.914429 0.001175 340.494171
90 340.494141 -0.000358 -0.000477 0.001175 -85.301140 0.001175 340.494171
[Rear_Toe3_03]
88 433.103577 0.001431 -0.000238 -179.992645 82.765160 -179.989151 433.103546
89 433.103577 0.001431 -0.000238 -179.994110 81.381676 -179.990601 433.103546
90 433.103577 0.001431 -0.000238 -179.994980 80.264534 -179.991470 433.103546
[Back_Bone]
88 1312.175781 -701.934692 0.000954 2.847761 2.488575 -83.893799 1488.125488
89 1312.175781 -701.934692 0.000954 2.740875 2.760803 -83.438858 1488.125488
90 1312.175781 -701.934692 0.000954 2.636122 3.033852 -82.984291 1488.125488
[Head]
88 1406.159424 809.709290 0.001431 3.849700 -1.747746 0.222516 1622.625488
89 1406.159424 809.709290 0.001431 3.970532 -1.494349 -0.099645 1622.625488
90 1406.159424 809.709290 0.001431 3.964281 -1.189833 -0.247388 1622.625488
[Motor_Bone]
88 1158.364380 -417.834747 0.000477 0.001462 -0.034198 -106.021194 1231.419434
89 1158.364380 -417.834747 0.000477 2.853907 -2.893644 -108.875946 1231.419434
90 1158.364380 -417.834747 0.000477 5.387204 -1.836232 -107.819946 1231.419434
[Ping_Mechanism]
88 1197.604736 -414.366699 37.228127 0.000103 -0.000053 82.120995 1267.810303
89 1199.984863 -417.762756 30.498903 0.000103 -0.000053 82.120995 1270.991699
90 1203.486694 -421.872986 22.730545 0.000103 -0.000053 82.120995 1275.489624
[BN_LookIK]
88 193.241119 1380.371704 -0.002861 0.000000 89.965736 -31.038179 1393.832153
89 193.241119 1380.371704 -0.002861 0.000000 89.965736 -31.038179 1393.832153
90 193.241119 1380.371704 -0.002861 0.000000 89.965736 -31.038179 1393.832153
[bottomMouth]
88 -435.092926 615.759399 -0.000954 -0.000022 0.000016 73.527184 753.966492
89 -435.092926 615.759399 -0.000954 -0.000022 0.000016 73.527184 753.966492
90 -435.092926 615.759399 -0.000954 -0.000022 0.000016 73.527184 753.966492
[L_Mouth01]
88 554.440979 7.658243 838.222046 150.204178 23.759130 109.605339 1005.027161
89 554.440979 7.658243 838.222046 150.204178 23.759130 109.605339 1005.027161
90 554.440979 7.658243 838.222046 150.204178 23.759130 109.605339 1005.027161
[L_mouthFront]
88 551.629089 934.514771 339.150421 0.000081 2.804060 79.119301 1136.941284
89 551.629089 934.514771 339.150421 0.000081 2.804060 79.119301 1136.941284
90 551.629089 934.514771 339.150421 0.000081 2.804060 79.119301 1136.941284
[mouthGun]
88 55.332661 1627.420898 0.000000 0.000023 0.000009 -11.038128 1628.361328
89 55.332661 1627.420898 0.000000 0.000023 0.000009 -11.038128 1628.361328
90 55.332661 1627.420898 0.000000 0.000023 0.000009 -11.038128 1628.361328
[R_Mouth01]
88 554.442383 7.659197 -838.223938 29.795891 -23.759109 109.605331 1005.029541
89 554.442383 7.659197 -838.223938 29.795891 -23.759109 109.605331 1005.029541
90 554.442383 7.659197 -838.223938 29.795891 -23.759109 109.605331 1005.029541
[R_mouthFront]
88 551.629089 934.514282 -339.151367 0.000029 -2.803930 79.119133 1136.941162
89 551.629089 934.514282 -339.151367 0.000029 -2.803930 79.119133 1136.941162
90 551.629089 934.514282 -339.151367 0.000029 -2.803930 79.119133 1136.941162
[TopMouth]
88 461.269867 -56.106091 -0.008583 -0.000059 -0.000268 92.025169 464.669525
89 461.269867 -56.106091 -0.008583 -0.000059 -0.000268 92.025169 464.669525
90 461.269867 -56.106091 -0.008583 -0.000059 -0.000268 92.025169 464.669525
[weapon_bone]
88 -987.239868 1448.372803 0.001431 0.000000 89.965736 -31.038221 1752.833740
89 -987.239868 1448.372803 0.001431 0.000000 89.965736 -31.038221 1752.833740
90 -987.239868 1448.372803 0.001431 0.000000 89.965736 -31.038221 1752.833740
